<mxfile host="app.diagrams.net" modified="2020-11-12T02:45:26.615Z" agent="5.0 (Macintosh; Intel Mac OS X 10_12_6) AppleWebKit/537.36 (KHTML, like Gecko) Chrome/84.0.4147.89 Safari/537.36" etag="3wCfky84EUs94Ow_cNiZ" version="13.9.6" type="github">
  <diagram id="1lMdCfVJhq3YgM70EewO" name="Page-1">
    <mxGraphModel dx="1773" dy="1693" grid="1" gridSize="10" guides="1" tooltips="1" connect="1" arrows="1" fold="1" page="1" pageScale="1" pageWidth="827" pageHeight="1169" math="0" shadow="0">
      <root>
        <mxCell id="0" />
        <mxCell id="1" parent="0" />
        <mxCell id="jQbffJ2s31ei9bwsYIVu-1" value="&amp;nbsp; 开发机器" style="rounded=0;whiteSpace=wrap;html=1;" vertex="1" parent="1">
          <mxGeometry x="70" y="120" width="90" height="60" as="geometry" />
        </mxCell>
        <mxCell id="jQbffJ2s31ei9bwsYIVu-4" value="" style="endArrow=classic;html=1;entryX=0;entryY=0.5;entryDx=0;entryDy=0;" edge="1" parent="1" target="jQbffJ2s31ei9bwsYIVu-6">
          <mxGeometry width="50" height="50" relative="1" as="geometry">
            <mxPoint x="160" y="150" as="sourcePoint" />
            <mxPoint x="240" y="150" as="targetPoint" />
          </mxGeometry>
        </mxCell>
        <mxCell id="jQbffJ2s31ei9bwsYIVu-6" value="聚石塔GIT仓库" style="rounded=0;whiteSpace=wrap;html=1;" vertex="1" parent="1">
          <mxGeometry x="330" y="120" width="120" height="60" as="geometry" />
        </mxCell>
        <mxCell id="jQbffJ2s31ei9bwsYIVu-7" value="" style="endArrow=classic;html=1;" edge="1" parent="1" target="jQbffJ2s31ei9bwsYIVu-8">
          <mxGeometry width="50" height="50" relative="1" as="geometry">
            <mxPoint x="450" y="150" as="sourcePoint" />
            <mxPoint x="440" y="150" as="targetPoint" />
          </mxGeometry>
        </mxCell>
        <mxCell id="jQbffJ2s31ei9bwsYIVu-8" value="聚石塔控制层进行发布" style="rounded=0;whiteSpace=wrap;html=1;" vertex="1" parent="1">
          <mxGeometry x="569" y="120" width="120" height="60" as="geometry" />
        </mxCell>
        <mxCell id="jQbffJ2s31ei9bwsYIVu-9" value="&lt;font style=&quot;font-size: 24px&quot; color=&quot;#ff3333&quot;&gt;目前天猫聚石塔的开发流程问题&lt;/font&gt;" style="text;html=1;align=center;verticalAlign=middle;resizable=0;points=[];autosize=1;" vertex="1" parent="1">
          <mxGeometry x="-10" y="-10" width="350" height="20" as="geometry" />
        </mxCell>
        <mxCell id="jQbffJ2s31ei9bwsYIVu-11" value="1、开发人员直接拉取聚石塔git仓库的代码，导致配置文件与不必要的文件被跟踪发布[vendor,js构建后的带版本的文件等等]&lt;br&gt;多人开发会遇到版本冲突的问题&lt;br&gt;" style="text;html=1;align=center;verticalAlign=middle;resizable=0;points=[];autosize=1;" vertex="1" parent="1">
          <mxGeometry x="20" y="35" width="670" height="30" as="geometry" />
        </mxCell>
        <mxCell id="jQbffJ2s31ei9bwsYIVu-12" value="2、缺少测试环境，导致所有的联调需要调用开发的ip或者上传到聚石塔服务器调试" style="text;html=1;align=center;verticalAlign=middle;resizable=0;points=[];autosize=1;" vertex="1" parent="1">
          <mxGeometry x="22" y="70" width="450" height="20" as="geometry" />
        </mxCell>
        <mxCell id="jQbffJ2s31ei9bwsYIVu-15" value="&lt;font style=&quot;font-size: 24px&quot; color=&quot;#190033&quot;&gt;改造方案&lt;/font&gt;" style="text;html=1;align=center;verticalAlign=middle;resizable=0;points=[];autosize=1;" vertex="1" parent="1">
          <mxGeometry x="-10" y="250" width="110" height="20" as="geometry" />
        </mxCell>
        <mxCell id="jQbffJ2s31ei9bwsYIVu-16" value="开发机器" style="whiteSpace=wrap;html=1;" vertex="1" parent="1">
          <mxGeometry x="55" y="390" width="120" height="60" as="geometry" />
        </mxCell>
        <mxCell id="jQbffJ2s31ei9bwsYIVu-17" value="" style="endArrow=classic;html=1;" edge="1" parent="1" source="jQbffJ2s31ei9bwsYIVu-16">
          <mxGeometry width="50" height="50" relative="1" as="geometry">
            <mxPoint x="175" y="470" as="sourcePoint" />
            <mxPoint x="245.71067811865476" y="420" as="targetPoint" />
          </mxGeometry>
        </mxCell>
        <mxCell id="jQbffJ2s31ei9bwsYIVu-18" value="车巴巴gitlab仓库" style="whiteSpace=wrap;html=1;" vertex="1" parent="1">
          <mxGeometry x="250" y="390" width="120" height="60" as="geometry" />
        </mxCell>
        <mxCell id="jQbffJ2s31ei9bwsYIVu-30" value="" style="edgeStyle=orthogonalEdgeStyle;rounded=0;orthogonalLoop=1;jettySize=auto;html=1;entryX=0.417;entryY=0.017;entryDx=0;entryDy=0;entryPerimeter=0;" edge="1" parent="1" source="jQbffJ2s31ei9bwsYIVu-19" target="jQbffJ2s31ei9bwsYIVu-28">
          <mxGeometry relative="1" as="geometry" />
        </mxCell>
        <mxCell id="jQbffJ2s31ei9bwsYIVu-19" value="聚石塔GIT仓库" style="rounded=0;whiteSpace=wrap;html=1;" vertex="1" parent="1">
          <mxGeometry x="670" y="390" width="120" height="60" as="geometry" />
        </mxCell>
        <mxCell id="jQbffJ2s31ei9bwsYIVu-22" value="" style="endArrow=classic;html=1;entryX=0;entryY=0.5;entryDx=0;entryDy=0;" edge="1" parent="1" target="jQbffJ2s31ei9bwsYIVu-19">
          <mxGeometry width="50" height="50" relative="1" as="geometry">
            <mxPoint x="379.28999999999996" y="419.5" as="sourcePoint" />
            <mxPoint x="450.00067811865483" y="419.5" as="targetPoint" />
          </mxGeometry>
        </mxCell>
        <mxCell id="jQbffJ2s31ei9bwsYIVu-23" value="通过脚本自动执行composer install &lt;br&gt;cnpm run 之类的操作推送到聚石塔git仓库" style="text;html=1;align=center;verticalAlign=middle;resizable=0;points=[];autosize=1;" vertex="1" parent="1">
          <mxGeometry x="380" y="390" width="240" height="30" as="geometry" />
        </mxCell>
        <mxCell id="jQbffJ2s31ei9bwsYIVu-26" value="" style="endArrow=classic;html=1;exitX=0.45;exitY=1.017;exitDx=0;exitDy=0;exitPerimeter=0;" edge="1" parent="1" source="jQbffJ2s31ei9bwsYIVu-18" target="jQbffJ2s31ei9bwsYIVu-27">
          <mxGeometry width="50" height="50" relative="1" as="geometry">
            <mxPoint x="390" y="500" as="sourcePoint" />
            <mxPoint x="304" y="530" as="targetPoint" />
          </mxGeometry>
        </mxCell>
        <mxCell id="jQbffJ2s31ei9bwsYIVu-27" value="搭建K8S测试环境" style="rounded=0;whiteSpace=wrap;html=1;" vertex="1" parent="1">
          <mxGeometry x="244" y="500" width="120" height="60" as="geometry" />
        </mxCell>
        <mxCell id="jQbffJ2s31ei9bwsYIVu-28" value="聚石塔控制层进行发布" style="rounded=0;whiteSpace=wrap;html=1;" vertex="1" parent="1">
          <mxGeometry x="680" y="500" width="120" height="60" as="geometry" />
        </mxCell>
        <mxCell id="jQbffJ2s31ei9bwsYIVu-31" value="&lt;br&gt;1、开发直接对接gitlab仓库，避免每个开发直接操作配置文件之类敏感数据" style="text;html=1;align=center;verticalAlign=middle;resizable=0;points=[];autosize=1;" vertex="1" parent="1">
          <mxGeometry y="290" width="410" height="30" as="geometry" />
        </mxCell>
        <mxCell id="jQbffJ2s31ei9bwsYIVu-32" value="2、通过k8s测试环境，可以方便后续前后端的联调开发需求" style="text;html=1;align=center;verticalAlign=middle;resizable=0;points=[];autosize=1;" vertex="1" parent="1">
          <mxGeometry y="340" width="330" height="20" as="geometry" />
        </mxCell>
        <mxCell id="jQbffJ2s31ei9bwsYIVu-34" value="&lt;font style=&quot;font-size: 18px&quot;&gt;1、前期先改造，启辰天猫的 api&amp;nbsp;&amp;nbsp;&amp;nbsp;&lt;br&gt;&lt;br&gt;&lt;/font&gt;" style="text;html=1;align=center;verticalAlign=middle;resizable=0;points=[];autosize=1;" vertex="1" parent="1">
          <mxGeometry x="50" y="-155" width="290" height="40" as="geometry" />
        </mxCell>
        <mxCell id="jQbffJ2s31ei9bwsYIVu-39" value="&lt;span style=&quot;font-family: &amp;#34;helvetica&amp;#34; ; font-size: 18px&quot;&gt;2、启辰天猫的 admin&amp;nbsp;&lt;/span&gt;" style="text;html=1;align=center;verticalAlign=middle;resizable=0;points=[];autosize=1;" vertex="1" parent="1">
          <mxGeometry x="60" y="-110" width="190" height="20" as="geometry" />
        </mxCell>
        <mxCell id="jQbffJ2s31ei9bwsYIVu-40" value="2020年11月" style="text;html=1;align=center;verticalAlign=middle;resizable=0;points=[];autosize=1;" vertex="1" parent="1">
          <mxGeometry x="50" y="720" width="80" height="20" as="geometry" />
        </mxCell>
      </root>
    </mxGraphModel>
  </diagram>
</mxfile>
